<mxfile host="Electron" agent="Mozilla/5.0 (Windows NT 10.0; Win64; x64) AppleWebKit/537.36 (KHTML, like Gecko) draw.io/26.0.4 Chrome/128.0.6613.186 Electron/32.2.5 Safari/537.36" version="26.0.4">
  <diagram name="Страница — 1" id="Tew3rc_UxAltEq-WoARq">
    <mxGraphModel dx="2074" dy="1206" grid="1" gridSize="10" guides="1" tooltips="1" connect="1" arrows="1" fold="1" page="1" pageScale="1" pageWidth="827" pageHeight="1169" math="0" shadow="0">
      <root>
        <mxCell id="0" />
        <mxCell id="1" parent="0" />
        <mxCell id="Lr57bu5QNilpIejlj-a4-6" value="Клиент" style="swimlane;fontStyle=0;childLayout=stackLayout;horizontal=1;startSize=26;fillColor=none;horizontalStack=0;resizeParent=1;resizeParentMax=0;resizeLast=0;collapsible=1;marginBottom=0;whiteSpace=wrap;html=1;" vertex="1" parent="1">
          <mxGeometry x="140" y="720" width="140" height="104" as="geometry" />
        </mxCell>
        <mxCell id="Lr57bu5QNilpIejlj-a4-7" value="+id: int" style="text;strokeColor=none;fillColor=none;align=left;verticalAlign=top;spacingLeft=4;spacingRight=4;overflow=hidden;rotatable=0;points=[[0,0.5],[1,0.5]];portConstraint=eastwest;whiteSpace=wrap;html=1;" vertex="1" parent="Lr57bu5QNilpIejlj-a4-6">
          <mxGeometry y="26" width="140" height="26" as="geometry" />
        </mxCell>
        <mxCell id="Lr57bu5QNilpIejlj-a4-8" value="-наименовние" style="text;strokeColor=none;fillColor=none;align=left;verticalAlign=top;spacingLeft=4;spacingRight=4;overflow=hidden;rotatable=0;points=[[0,0.5],[1,0.5]];portConstraint=eastwest;whiteSpace=wrap;html=1;" vertex="1" parent="Lr57bu5QNilpIejlj-a4-6">
          <mxGeometry y="52" width="140" height="26" as="geometry" />
        </mxCell>
        <mxCell id="Lr57bu5QNilpIejlj-a4-9" value="-контакнтые данные" style="text;strokeColor=none;fillColor=none;align=left;verticalAlign=top;spacingLeft=4;spacingRight=4;overflow=hidden;rotatable=0;points=[[0,0.5],[1,0.5]];portConstraint=eastwest;whiteSpace=wrap;html=1;" vertex="1" parent="Lr57bu5QNilpIejlj-a4-6">
          <mxGeometry y="78" width="140" height="26" as="geometry" />
        </mxCell>
        <mxCell id="Lr57bu5QNilpIejlj-a4-15" value="" style="endArrow=none;html=1;rounded=0;entryX=0.5;entryY=1.038;entryDx=0;entryDy=0;entryPerimeter=0;exitX=0.5;exitY=0;exitDx=0;exitDy=0;endFill=0;startArrow=classic;startFill=1;" edge="1" parent="1" target="Lr57bu5QNilpIejlj-a4-9">
          <mxGeometry width="50" height="50" relative="1" as="geometry">
            <mxPoint x="210" y="880" as="sourcePoint" />
            <mxPoint x="660" y="930" as="targetPoint" />
          </mxGeometry>
        </mxCell>
        <mxCell id="Lr57bu5QNilpIejlj-a4-16" value="Размещает" style="text;html=1;align=center;verticalAlign=middle;whiteSpace=wrap;rounded=0;" vertex="1" parent="1">
          <mxGeometry x="220" y="840" width="60" height="30" as="geometry" />
        </mxCell>
        <mxCell id="Lr57bu5QNilpIejlj-a4-18" value="&lt;span style=&quot;white-space: pre; background-color: rgb(255, 255, 255);&quot;&gt;&lt;font style=&quot;color: rgb(0, 0, 0);&quot;&gt; - id: int&lt;br&gt; - количествоКалькуляторов: int&lt;br&gt; - клиент: Клиент&lt;br&gt; - датаЗаказа: Date&lt;br&gt; - статус: String&lt;/font&gt;&lt;/span&gt;" style="rounded=0;whiteSpace=wrap;html=1;align=left;" vertex="1" parent="1">
          <mxGeometry x="135" y="880" width="245" height="140" as="geometry" />
        </mxCell>
        <mxCell id="Lr57bu5QNilpIejlj-a4-19" value="Заказ" style="rounded=0;whiteSpace=wrap;html=1;" vertex="1" parent="1">
          <mxGeometry x="135" y="880" width="245" height="30" as="geometry" />
        </mxCell>
        <mxCell id="Lr57bu5QNilpIejlj-a4-20" value="&lt;div style=&quot;background-color: rgb(255, 255, 254); font-family: Consolas, &amp;quot;Courier New&amp;quot;, monospace; line-height: 16px; white-space: pre;&quot;&gt;&lt;div&gt;-модель: String&lt;/div&gt;&lt;div&gt;-цена: double&lt;/div&gt;&lt;div&gt;-характеристики: String&lt;/div&gt;&lt;div&gt;+получитьХарактеристики(): String&lt;/div&gt;&lt;/div&gt;" style="rounded=0;whiteSpace=wrap;html=1;align=left;" vertex="1" parent="1">
          <mxGeometry x="470" y="880" width="245" height="140" as="geometry" />
        </mxCell>
        <mxCell id="Lr57bu5QNilpIejlj-a4-21" value="Калькулятор" style="rounded=0;whiteSpace=wrap;html=1;" vertex="1" parent="1">
          <mxGeometry x="470" y="880" width="245" height="30" as="geometry" />
        </mxCell>
        <mxCell id="Lr57bu5QNilpIejlj-a4-25" value="&lt;div style=&quot;background-color: rgb(255, 255, 254); font-family: Consolas, &amp;quot;Courier New&amp;quot;, monospace; line-height: 16px; white-space: pre;&quot;&gt;+получитьХарактеристики(): String&lt;/div&gt;" style="rounded=0;whiteSpace=wrap;html=1;" vertex="1" parent="1">
          <mxGeometry x="470" y="990" width="245" height="30" as="geometry" />
        </mxCell>
        <mxCell id="Lr57bu5QNilpIejlj-a4-26" value="" style="endArrow=openThin;html=1;rounded=0;entryX=0;entryY=0.5;entryDx=0;entryDy=0;exitX=1;exitY=0.5;exitDx=0;exitDy=0;startArrow=block;startFill=1;endFill=0;" edge="1" parent="1" source="Lr57bu5QNilpIejlj-a4-18" target="Lr57bu5QNilpIejlj-a4-20">
          <mxGeometry width="50" height="50" relative="1" as="geometry">
            <mxPoint x="340" y="1140" as="sourcePoint" />
            <mxPoint x="390" y="1090" as="targetPoint" />
          </mxGeometry>
        </mxCell>
        <mxCell id="Lr57bu5QNilpIejlj-a4-27" value="включает" style="text;html=1;align=center;verticalAlign=middle;whiteSpace=wrap;rounded=0;" vertex="1" parent="1">
          <mxGeometry x="400" y="910" width="60" height="30" as="geometry" />
        </mxCell>
        <mxCell id="Lr57bu5QNilpIejlj-a4-28" value="&lt;div style=&quot;background-color: rgb(255, 255, 254); font-family: Consolas, &amp;quot;Courier New&amp;quot;, monospace; line-height: 16px; white-space: pre;&quot;&gt;&lt;div style=&quot;line-height: 16px;&quot;&gt;-рекламнаяКампания: String&lt;/div&gt;&lt;/div&gt;" style="rounded=0;whiteSpace=wrap;html=1;align=left;" vertex="1" parent="1">
          <mxGeometry x="750" y="740" width="245" height="30" as="geometry" />
        </mxCell>
        <mxCell id="Lr57bu5QNilpIejlj-a4-29" value="Маркетинг" style="rounded=0;whiteSpace=wrap;html=1;" vertex="1" parent="1">
          <mxGeometry x="750" y="710" width="245" height="30" as="geometry" />
        </mxCell>
        <mxCell id="Lr57bu5QNilpIejlj-a4-30" value="&lt;div style=&quot;background-color: rgb(255, 255, 254); font-family: Consolas, &amp;quot;Courier New&amp;quot;, monospace; line-height: 16px; white-space: pre;&quot;&gt;&lt;div style=&quot;line-height: 16px;&quot;&gt;+запуститьРекламнуюКампанию(): void&lt;/div&gt;&lt;/div&gt;" style="rounded=0;whiteSpace=wrap;html=1;" vertex="1" parent="1">
          <mxGeometry x="750" y="770" width="245" height="30" as="geometry" />
        </mxCell>
        <mxCell id="Lr57bu5QNilpIejlj-a4-31" value="" style="endArrow=classic;html=1;rounded=0;exitX=1;exitY=0.5;exitDx=0;exitDy=0;entryX=0.5;entryY=1;entryDx=0;entryDy=0;startArrow=none;startFill=0;endFill=1;" edge="1" parent="1" source="Lr57bu5QNilpIejlj-a4-20" target="Lr57bu5QNilpIejlj-a4-30">
          <mxGeometry width="50" height="50" relative="1" as="geometry">
            <mxPoint x="830" y="1050" as="sourcePoint" />
            <mxPoint x="880" y="1000" as="targetPoint" />
          </mxGeometry>
        </mxCell>
        <mxCell id="Lr57bu5QNilpIejlj-a4-32" value="Рекламирует" style="text;html=1;align=center;verticalAlign=middle;whiteSpace=wrap;rounded=0;" vertex="1" parent="1">
          <mxGeometry x="740" y="840" width="60" height="30" as="geometry" />
        </mxCell>
        <mxCell id="Lr57bu5QNilpIejlj-a4-33" value="&lt;div style=&quot;background-color: rgb(255, 255, 254); font-family: Consolas, &amp;quot;Courier New&amp;quot;, monospace; line-height: 16px; white-space: pre;&quot;&gt;&lt;div style=&quot;line-height: 16px;&quot;&gt;&lt;div style=&quot;line-height: 16px;&quot;&gt;-прибыль: double&lt;/div&gt;&lt;/div&gt;&lt;/div&gt;" style="rounded=0;whiteSpace=wrap;html=1;align=left;" vertex="1" parent="1">
          <mxGeometry x="760" y="490" width="245" height="30" as="geometry" />
        </mxCell>
        <mxCell id="Lr57bu5QNilpIejlj-a4-34" value="Маркетинг" style="rounded=0;whiteSpace=wrap;html=1;" vertex="1" parent="1">
          <mxGeometry x="760" y="460" width="245" height="30" as="geometry" />
        </mxCell>
        <mxCell id="Lr57bu5QNilpIejlj-a4-35" value="&lt;div style=&quot;background-color: rgb(255, 255, 254); font-family: Consolas, &amp;quot;Courier New&amp;quot;, monospace; line-height: 16px; white-space: pre;&quot;&gt;&lt;div style=&quot;line-height: 16px;&quot;&gt;&lt;div style=&quot;line-height: 16px;&quot;&gt;+рассчитатьПрибыль(): double&lt;/div&gt;&lt;/div&gt;&lt;/div&gt;" style="rounded=0;whiteSpace=wrap;html=1;" vertex="1" parent="1">
          <mxGeometry x="760" y="550" width="245" height="30" as="geometry" />
        </mxCell>
        <mxCell id="Lr57bu5QNilpIejlj-a4-36" value="&lt;div style=&quot;background-color: rgb(255, 255, 254); font-family: Consolas, &amp;quot;Courier New&amp;quot;, monospace; line-height: 16px; white-space: pre;&quot;&gt;&lt;div style=&quot;line-height: 16px;&quot;&gt;&lt;div style=&quot;line-height: 16px;&quot;&gt;-расходы: double&lt;/div&gt;&lt;/div&gt;&lt;/div&gt;" style="rounded=0;whiteSpace=wrap;html=1;align=left;" vertex="1" parent="1">
          <mxGeometry x="760" y="520" width="245" height="30" as="geometry" />
        </mxCell>
        <mxCell id="Lr57bu5QNilpIejlj-a4-38" value="Учёт прибыли" style="text;html=1;align=center;verticalAlign=middle;whiteSpace=wrap;rounded=0;" vertex="1" parent="1">
          <mxGeometry x="680" y="660" width="60" height="30" as="geometry" />
        </mxCell>
        <mxCell id="Lr57bu5QNilpIejlj-a4-39" value="&lt;div style=&quot;background-color: rgb(255, 255, 254); font-family: Consolas, &amp;quot;Courier New&amp;quot;, monospace; line-height: 16px; white-space: pre;&quot;&gt;&lt;div style=&quot;line-height: 16px;&quot;&gt;&lt;div style=&quot;line-height: 16px;&quot;&gt;-эффективность: double&lt;/div&gt;&lt;/div&gt;&lt;/div&gt;" style="rounded=0;whiteSpace=wrap;html=1;align=left;" vertex="1" parent="1">
          <mxGeometry x="1070" y="740" width="410" height="30" as="geometry" />
        </mxCell>
        <mxCell id="Lr57bu5QNilpIejlj-a4-40" value="Производство" style="rounded=0;whiteSpace=wrap;html=1;" vertex="1" parent="1">
          <mxGeometry x="1070" y="710" width="410" height="30" as="geometry" />
        </mxCell>
        <mxCell id="Lr57bu5QNilpIejlj-a4-41" value="&lt;div style=&quot;background-color: rgb(255, 255, 254); font-family: Consolas, &amp;quot;Courier New&amp;quot;, monospace; line-height: 16px; white-space: pre;&quot;&gt;&lt;div style=&quot;line-height: 16px;&quot;&gt;&lt;div style=&quot;line-height: 16px;&quot;&gt;+произвестиКалькуляторы(количество: int): List&amp;lt;Калькулятор&amp;gt;&lt;/div&gt;&lt;/div&gt;&lt;/div&gt;" style="rounded=0;whiteSpace=wrap;html=1;" vertex="1" parent="1">
          <mxGeometry x="1070" y="770" width="410" height="30" as="geometry" />
        </mxCell>
        <mxCell id="Lr57bu5QNilpIejlj-a4-42" value="" style="endArrow=classicThin;html=1;rounded=0;exitX=0.5;exitY=0;exitDx=0;exitDy=0;entryX=0.25;entryY=1;entryDx=0;entryDy=0;startArrow=classic;startFill=1;endFill=1;" edge="1" parent="1" source="Lr57bu5QNilpIejlj-a4-21" target="Lr57bu5QNilpIejlj-a4-35">
          <mxGeometry width="50" height="50" relative="1" as="geometry">
            <mxPoint x="530" y="870" as="sourcePoint" />
            <mxPoint x="688" y="720" as="targetPoint" />
          </mxGeometry>
        </mxCell>
        <mxCell id="Lr57bu5QNilpIejlj-a4-44" value="" style="endArrow=classic;html=1;rounded=0;exitX=1;exitY=1;exitDx=0;exitDy=0;entryX=0.5;entryY=0;entryDx=0;entryDy=0;startArrow=classic;startFill=1;endFill=1;" edge="1" parent="1" source="Lr57bu5QNilpIejlj-a4-33" target="Lr57bu5QNilpIejlj-a4-40">
          <mxGeometry width="50" height="50" relative="1" as="geometry">
            <mxPoint x="1200" y="620" as="sourcePoint" />
            <mxPoint x="1250" y="570" as="targetPoint" />
          </mxGeometry>
        </mxCell>
        <mxCell id="Lr57bu5QNilpIejlj-a4-45" value="" style="endArrow=classic;html=1;rounded=0;exitX=1;exitY=0.5;exitDx=0;exitDy=0;entryX=0.25;entryY=1;entryDx=0;entryDy=0;endFill=1;" edge="1" parent="1" source="Lr57bu5QNilpIejlj-a4-20" target="Lr57bu5QNilpIejlj-a4-41">
          <mxGeometry width="50" height="50" relative="1" as="geometry">
            <mxPoint x="1070" y="1000" as="sourcePoint" />
            <mxPoint x="1120" y="950" as="targetPoint" />
          </mxGeometry>
        </mxCell>
        <mxCell id="Lr57bu5QNilpIejlj-a4-46" value="производит" style="text;html=1;align=center;verticalAlign=middle;whiteSpace=wrap;rounded=0;" vertex="1" parent="1">
          <mxGeometry x="945" y="810" width="60" height="30" as="geometry" />
        </mxCell>
        <mxCell id="Lr57bu5QNilpIejlj-a4-47" value="Учитовает прибыль" style="text;html=1;align=center;verticalAlign=middle;whiteSpace=wrap;rounded=0;" vertex="1" parent="1">
          <mxGeometry x="1160" y="610" width="60" height="30" as="geometry" />
        </mxCell>
        <mxCell id="Lr57bu5QNilpIejlj-a4-48" value="&lt;div style=&quot;background-color: rgb(255, 255, 254); font-family: Consolas, &amp;quot;Courier New&amp;quot;, monospace; line-height: 16px; white-space: pre;&quot;&gt;&lt;div style=&quot;line-height: 16px;&quot;&gt;&lt;div style=&quot;line-height: 16px;&quot;&gt;-компоненты: List&amp;lt;Компонент&amp;gt;&lt;/div&gt;&lt;/div&gt;&lt;/div&gt;" style="rounded=0;whiteSpace=wrap;html=1;align=left;" vertex="1" parent="1">
          <mxGeometry x="1152.5" y="960" width="347.5" height="30" as="geometry" />
        </mxCell>
        <mxCell id="Lr57bu5QNilpIejlj-a4-49" value="Склад" style="rounded=0;whiteSpace=wrap;html=1;" vertex="1" parent="1">
          <mxGeometry x="1152.5" y="930" width="347.5" height="30" as="geometry" />
        </mxCell>
        <mxCell id="Lr57bu5QNilpIejlj-a4-50" value="&lt;div style=&quot;background-color: rgb(255, 255, 254); font-family: Consolas, &amp;quot;Courier New&amp;quot;, monospace; line-height: 16px; white-space: pre;&quot;&gt;&lt;div style=&quot;line-height: 16px;&quot;&gt;&lt;div style=&quot;line-height: 16px;&quot;&gt;&lt;div&gt;+получитьКомпонент(наименование: String): Компонент&lt;/div&gt;&lt;div&gt;&lt;span style=&quot;background-color: light-dark(rgb(255, 255, 254), rgb(255, 255, 254)); color: light-dark(rgb(0, 0, 0), rgb(255, 255, 255));&quot;&gt;+добавитьКомпонент(компонент: Компонент): void&lt;/span&gt;&lt;/div&gt;&lt;div&gt;+удалитьКомпонент(компонент: Компонент): void&lt;/div&gt;&lt;/div&gt;&lt;/div&gt;&lt;/div&gt;" style="rounded=0;whiteSpace=wrap;html=1;align=left;" vertex="1" parent="1">
          <mxGeometry x="1152.5" y="990" width="347.5" height="80" as="geometry" />
        </mxCell>
        <mxCell id="Lr57bu5QNilpIejlj-a4-55" value="&lt;div style=&quot;background-color: rgb(255, 255, 254); font-family: Consolas, &amp;quot;Courier New&amp;quot;, monospace; line-height: 16px; white-space: pre;&quot;&gt;&lt;div&gt;-наименование: String&lt;/div&gt;&lt;div&gt;-количество: int&lt;/div&gt;&lt;div&gt;-ценаЗаЕдиницу: double&lt;/div&gt;&lt;/div&gt;" style="rounded=0;whiteSpace=wrap;html=1;align=left;" vertex="1" parent="1">
          <mxGeometry x="790" y="1140" width="245" height="120" as="geometry" />
        </mxCell>
        <mxCell id="Lr57bu5QNilpIejlj-a4-56" value="Компонент" style="rounded=0;whiteSpace=wrap;html=1;" vertex="1" parent="1">
          <mxGeometry x="790" y="1140" width="245" height="30" as="geometry" />
        </mxCell>
        <mxCell id="Lr57bu5QNilpIejlj-a4-57" value="" style="endArrow=none;html=1;rounded=0;exitX=0.5;exitY=1;exitDx=0;exitDy=0;entryX=1;entryY=0.5;entryDx=0;entryDy=0;startArrow=classic;startFill=1;endFill=0;" edge="1" parent="1" source="Lr57bu5QNilpIejlj-a4-50" target="Lr57bu5QNilpIejlj-a4-55">
          <mxGeometry width="50" height="50" relative="1" as="geometry">
            <mxPoint x="1230" y="1130" as="sourcePoint" />
            <mxPoint x="1280" y="1080" as="targetPoint" />
          </mxGeometry>
        </mxCell>
        <mxCell id="Lr57bu5QNilpIejlj-a4-58" value="" style="endArrow=none;html=1;rounded=0;exitX=0;exitY=0.5;exitDx=0;exitDy=0;entryX=0.5;entryY=1;entryDx=0;entryDy=0;startArrow=classic;startFill=1;endFill=0;" edge="1" parent="1" source="Lr57bu5QNilpIejlj-a4-55" target="Lr57bu5QNilpIejlj-a4-25">
          <mxGeometry width="50" height="50" relative="1" as="geometry">
            <mxPoint x="715" y="1130" as="sourcePoint" />
            <mxPoint x="765" y="1080" as="targetPoint" />
          </mxGeometry>
        </mxCell>
        <mxCell id="Lr57bu5QNilpIejlj-a4-59" value="" style="endArrow=classic;html=1;rounded=0;exitX=0.5;exitY=0;exitDx=0;exitDy=0;entryX=0.5;entryY=1;entryDx=0;entryDy=0;startArrow=classic;startFill=1;" edge="1" parent="1" source="Lr57bu5QNilpIejlj-a4-49" target="Lr57bu5QNilpIejlj-a4-41">
          <mxGeometry width="50" height="50" relative="1" as="geometry">
            <mxPoint x="1290" y="880" as="sourcePoint" />
            <mxPoint x="1340" y="830" as="targetPoint" />
          </mxGeometry>
        </mxCell>
        <mxCell id="Lr57bu5QNilpIejlj-a4-60" value="Хранит&lt;div&gt;&lt;br&gt;&lt;/div&gt;" style="text;html=1;align=center;verticalAlign=middle;whiteSpace=wrap;rounded=0;" vertex="1" parent="1">
          <mxGeometry x="1130" y="1110" width="60" height="30" as="geometry" />
        </mxCell>
        <mxCell id="Lr57bu5QNilpIejlj-a4-61" value="&lt;div&gt;использует&lt;/div&gt;" style="text;html=1;align=center;verticalAlign=middle;whiteSpace=wrap;rounded=0;" vertex="1" parent="1">
          <mxGeometry x="1230" y="850" width="60" height="30" as="geometry" />
        </mxCell>
      </root>
    </mxGraphModel>
  </diagram>
</mxfile>
